<?xml version="1.0" encoding="UTF-8" standalone="no"?>
<!-- Uploaded to: SVG Repo, www.svgrepo.com, Generator: SVG Repo Mixer Tools -->

<svg
   fill="#000000"
   width="108"
   height="108"
   viewBox="0 0 108 108"
   version="1.1"
   id="svg1"
   sodipodi:docname="ic_launcher.svg"
   inkscape:version="1.3.2 (091e20ef0f, 2023-11-25, custom)"
   inkscape:export-filename="ic_launcher_192.webp"
   inkscape:export-xdpi="170.66667"
   inkscape:export-ydpi="170.66667"
   xmlns:inkscape="http://www.inkscape.org/namespaces/inkscape"
   xmlns:sodipodi="http://sodipodi.sourceforge.net/DTD/sodipodi-0.dtd"
   xmlns="http://www.w3.org/2000/svg"
   xmlns:svg="http://www.w3.org/2000/svg">
  <defs
     id="defs1">
    <inkscape:path-effect
       effect="fillet_chamfer"
       id="path-effect3"
       is_visible="true"
       lpeversion="1"
       nodesatellites_param="F,0,1,1,0,0.59857934,0,1 @ F,0,1,1,0,0.59857934,0,1 @ F,0,0,1,0,0.59857934,0,1 @ F,0,1,1,0,0.59857934,0,1"
       radius="0"
       unit="px"
       method="auto"
       mode="F"
       chamfer_steps="1"
       flexible="false"
       use_knot_distance="true"
       apply_no_radius="true"
       apply_with_radius="true"
       only_selected="false"
       hide_knots="false" />
  </defs>
  <sodipodi:namedview
     id="namedview1"
     pagecolor="#ffffff"
     bordercolor="#000000"
     borderopacity="0.25"
     inkscape:showpageshadow="2"
     inkscape:pageopacity="0.0"
     inkscape:pagecheckerboard="0"
     inkscape:deskcolor="#d1d1d1"
     inkscape:zoom="4.24"
     inkscape:cx="75.825472"
     inkscape:cy="37.735849"
     inkscape:window-width="1920"
     inkscape:window-height="1054"
     inkscape:window-x="0"
     inkscape:window-y="26"
     inkscape:window-maximized="1"
     inkscape:current-layer="g2" />
  <g
     id="g2"
     inkscape:label="icon"
     transform="scale(33.333333)">
    <path
       id="path3"
       style="fill:#9fd8a4;stroke-width:0.119839;fill-opacity:1"
       inkscape:label="back"
       d="M 0.76057934,0.162 H 2.4794207 A 0.59857934,0.59857934 45 0 1 3.078,0.76057934 V 2.4794207 A 0.59857934,0.59857934 135 0 1 2.4794207,3.078 H 0.76057934 A 0.59857934,0.59857934 45 0 1 0.162,2.4794207 V 0.76057934 A 0.59857934,0.59857934 135 0 1 0.76057934,0.162 Z"
       inkscape:path-effect="#path-effect3"
       inkscape:original-d="M 0.162,0.162 H 3.078 V 3.078 H 0.162 Z" />
    <g
       id="g1"
       inkscape:label="logo"
       transform="matrix(0.138125,0,0,0.13746094,0.17245003,0.10477493)">
      <path
         d="m 16.55,5.1997584 h -6.54 c -1.3333332,0 -1.3333332,2 0,2 h 6.54 c 1.333333,0 1.333333,-2 0,-2 z m -12.1400006,2 h 2.2000004 c 1.333333,0 1.333333,-2 0,-2 H 4.4099994 c -1.3333328,0 -1.3333328,2 0,2 z"
         id="path1-5-7-1"
         inkscape:label="1"
         sodipodi:nodetypes="ssssssssss"
         style="fill:#001b07;fill-opacity:1" />
      <path
         d="M 4.4099996,10.022946 H 10.95 c 1.333333,0 1.333333,2.000002 0,2.000002 H 4.4099996 c -1.333333,0 -1.333333,-2.000002 0,-2.000002 z M 16.55,12.022948 h -2.2 c -1.333333,0 -1.333333,-2.000002 0,-2.000002 h 2.2 c 1.333333,0 1.333333,2.000002 0,2.000002 z"
         id="path1-5-7-1-7"
         inkscape:label="2"
         sodipodi:nodetypes="ssssssssss"
         style="fill:#001b07;fill-opacity:1" />
      <path
         d="m 16.55,14.846138 h -6.54 c -1.333333,0 -1.333333,2.000004 0,2.000004 h 6.54 c 1.333333,0 1.333333,-2.000004 0,-2.000004 z M 4.4099994,16.846142 h 2.2000005 c 1.333333,0 1.333333,-2.000004 0,-2.000004 H 4.4099994 c -1.3333328,0 -1.3333328,2.000004 0,2.000004 z"
         id="path1-5-7-1-7-9"
         inkscape:label="3"
         sodipodi:nodetypes="ssssssssss"
         style="fill:#001b07;fill-opacity:1" />
    </g>
  </g>
</svg>
