<?xml version="1.0" encoding="UTF-8" standalone="no"?>
<!-- Uploaded to: SVG Repo, www.svgrepo.com, Generator: SVG Repo Mixer Tools -->

<svg
   fill="#000000"
   width="800px"
   height="800px"
   viewBox="0 0 24 24"
   version="1.1"
   id="svg1"
   sodipodi:docname="logo.svg"
   inkscape:version="1.3.2 (091e20ef0f, 2023-11-25, custom)"
   xmlns:inkscape="http://www.inkscape.org/namespaces/inkscape"
   xmlns:sodipodi="http://sodipodi.sourceforge.net/DTD/sodipodi-0.dtd"
   xmlns="http://www.w3.org/2000/svg"
   xmlns:svg="http://www.w3.org/2000/svg">
  <defs
     id="defs1" />
  <sodipodi:namedview
     id="namedview1"
     pagecolor="#ffffff"
     bordercolor="#000000"
     borderopacity="0.25"
     inkscape:showpageshadow="2"
     inkscape:pageopacity="0.0"
     inkscape:pagecheckerboard="0"
     inkscape:deskcolor="#d1d1d1"
     inkscape:zoom="0.53"
     inkscape:cx="175.4717"
     inkscape:cy="452.83019"
     inkscape:window-width="1920"
     inkscape:window-height="1054"
     inkscape:window-x="0"
     inkscape:window-y="26"
     inkscape:window-maximized="1"
     inkscape:current-layer="svg1" />
  <g
     id="g1"
     inkscape:label="icon"
     transform="matrix(1.3,0,0,1.29375,-1.6239997,-2.2609419)">
    <path
       d="m 16.55,5.1997584 h -6.54 c -1.3333332,0 -1.3333332,2 0,2 h 6.54 c 1.333333,0 1.333333,-2 0,-2 z m -12.1400006,2 h 2.2000004 c 1.333333,0 1.333333,-2 0,-2 H 4.4099994 c -1.3333328,0 -1.3333328,2 0,2 z"
       id="path1-5-7-1"
       inkscape:label="1"
       sodipodi:nodetypes="ssssssssss" />
    <path
       d="M 4.4099996,10.022946 H 10.95 c 1.333333,0 1.333333,2.000002 0,2.000002 H 4.4099996 c -1.333333,0 -1.333333,-2.000002 0,-2.000002 z M 16.55,12.022948 h -2.2 c -1.333333,0 -1.333333,-2.000002 0,-2.000002 h 2.2 c 1.333333,0 1.333333,2.000002 0,2.000002 z"
       id="path1-5-7-1-7"
       inkscape:label="2"
       sodipodi:nodetypes="ssssssssss" />
    <path
       d="m 16.55,14.846138 h -6.54 c -1.333333,0 -1.333333,2.000004 0,2.000004 h 6.54 c 1.333333,0 1.333333,-2.000004 0,-2.000004 z M 4.4099994,16.846142 h 2.2000005 c 1.333333,0 1.333333,-2.000004 0,-2.000004 H 4.4099994 c -1.3333328,0 -1.3333328,2.000004 0,2.000004 z"
       id="path1-5-7-1-7-9"
       inkscape:label="3"
       sodipodi:nodetypes="ssssssssss" />
  </g>
</svg>
